<?xml version="1.0" standalone="no"?>
<!DOCTYPE svg PUBLIC "-//W3C//DTD SVG 20010904//EN"
 "http://www.w3.org/TR/2001/REC-SVG-20010904/DTD/svg10.dtd">
<svg version="1.0" xmlns="http://www.w3.org/2000/svg"
 width="1228.000000pt" height="1280.000000pt" viewBox="0 0 1228.000000 1280.000000"
 preserveAspectRatio="xMidYMid meet">
<metadata>
Created by potrace 1.15, written by Peter Selinger 2001-2017
</metadata>
<g transform="translate(0.000000,1280.000000) scale(0.100000,-0.100000)"
fill="#000000" stroke="none">
<path d="M4623 12600 c-112 -57 -190 -224 -253 -539 -37 -187 -59 -341 -115
-796 -54 -452 -56 -467 -63 -460 -3 3 -13 -6 -22 -19 l-16 -25 -364 155
c-1268 540 -1784 719 -1949 674 -78 -21 -96 -82 -64 -228 9 -42 17 -87 17 -99
1 -11 5 -19 10 -16 4 3 5 -3 2 -14 -11 -35 123 -391 143 -379 3 3 40 -71 81
-162 98 -221 311 -646 400 -802 129 -224 321 -502 337 -486 3 2 -39 78 -93
168 -115 193 -245 442 -308 588 -99 234 -187 534 -222 759 -16 108 -16 114 1
145 61 106 159 134 288 80 178 -74 953 -462 1207 -604 301 -168 393 -238 431
-327 19 -44 19 -49 4 -102 -63 -219 -140 -347 -308 -507 -126 -120 -263 -220
-767 -560 -411 -278 -570 -390 -770 -542 -486 -370 -764 -679 -945 -1047 -157
-319 -208 -568 -225 -1100 -16 -477 -42 -677 -125 -957 -108 -365 -261 -705
-451 -1004 -196 -309 -220 -366 -218 -514 1 -66 8 -114 22 -157 11 -35 16 -61
12 -58 -17 10 33 -118 84 -219 82 -161 230 -370 322 -457 22 -20 77 -66 122
-103 82 -64 118 -84 91 -48 -11 14 -10 13 9 -2 23 -20 30 -32 10 -20 -7 4 -8
3 -4 -4 4 -7 17 -17 29 -24 21 -11 21 -10 7 7 -14 18 -13 18 11 0 15 -11 25
-23 23 -26 -2 -3 2 -6 9 -6 7 0 43 -18 80 -41 37 -22 132 -66 210 -97 175 -71
216 -97 392 -248 154 -132 168 -144 145 -132 -10 6 -8 0 5 -16 133 -163 395
-287 675 -321 111 -13 311 -5 390 16 l55 14 -75 3 c-54 1 -33 4 75 10 291 14
696 81 999 164 137 37 162 42 106 19 -22 -9 -26 -12 -10 -9 14 2 66 8 115 11
119 9 212 -8 308 -54 41 -20 73 -33 70 -27 -15 26 21 -19 99 -125 142 -192
323 -457 684 -999 350 -526 388 -580 400 -569 12 13 -28 109 -135 326 -242
488 -540 980 -839 1386 l-110 149 29 48 c35 56 86 103 165 154 89 57 214 156
209 165 -3 5 0 12 6 16 8 5 9 3 4 -6 -6 -10 -4 -12 11 -6 121 49 314 53 404 8
l42 -20 -19 21 c-10 11 8 1 40 -22 63 -48 80 -70 20 -26 l-38 26 31 -28 c17
-15 143 -122 280 -238 216 -183 346 -294 459 -394 17 -14 100 -87 185 -161 85
-74 171 -149 190 -166 170 -153 464 -399 473 -396 4 1 140 -121 302 -272 487
-454 615 -565 615 -533 0 74 -684 841 -1137 1272 -502 480 -841 757 -1356
1110 l-157 108 83 91 c127 139 158 186 125 186 -7 0 -82 -45 -166 -100 -84
-55 -157 -100 -161 -100 -5 0 -71 38 -147 83 -405 244 -997 542 -982 495 7
-21 91 -81 323 -231 325 -209 603 -395 611 -408 4 -7 3 -9 -3 -6 -15 9 -46
-41 -40 -63 6 -24 -138 -110 -413 -247 l-204 -103 -65 73 c-245 272 -577 575
-589 537 -6 -18 51 -97 262 -365 194 -246 237 -305 204 -277 -13 11 -17 8 -23
-15 -5 -16 -8 -31 -7 -34 2 -10 -188 -87 -333 -134 -284 -94 -495 -134 -745
-142 -242 -8 -418 14 -665 84 -571 161 -1431 662 -1552 905 -20 39 -21 51 -13
99 18 110 49 180 206 462 120 214 170 322 178 380 2 18 15 72 27 120 21 81 22
92 8 130 -8 22 -26 49 -41 60 -38 29 -144 33 -321 12 -135 -15 -234 -14 -223
3 2 4 -3 16 -11 27 -15 20 -15 20 -10 -3 3 -12 1 -20 -4 -16 -22 13 -8 92 32
174 54 112 171 300 183 293 5 -4 6 -2 3 4 -4 6 1 19 9 29 9 10 12 13 8 5 -5
-10 -3 -12 5 -7 7 5 10 14 7 22 -3 8 -1 13 3 11 22 -6 155 200 241 373 66 130
132 302 134 342 0 16 3 28 6 28 3 0 5 10 6 23 0 12 9 58 19 102 13 57 18 120
18 220 0 155 -10 226 -73 491 -22 93 -46 213 -52 267 -21 174 13 340 108 531
60 120 192 318 206 310 6 -4 8 -3 5 3 -4 6 1 19 9 29 9 10 12 13 8 5 -5 -9 -3
-12 5 -7 6 4 9 11 6 16 -3 4 3 16 13 27 9 10 13 12 7 3 -9 -13 -8 -13 7 -2 9
8 15 19 12 26 -3 7 3 19 13 27 17 13 17 13 3 -6 -14 -19 -14 -19 2 -6 10 7 16
17 13 21 -3 5 5 19 17 32 15 16 18 17 8 3 -15 -20 -15 -20 7 -2 12 11 20 24
17 31 -3 7 6 21 18 32 23 19 23 19 8 -1 -14 -18 -14 -19 2 -6 10 7 15 17 13
22 -15 23 460 511 655 675 312 262 604 455 931 618 171 85 234 112 224 96 -9
-14 79 -12 150 4 33 7 130 32 215 54 220 59 392 88 740 128 335 38 488 62 625
99 257 70 445 182 548 327 49 69 90 155 81 169 -3 5 -1 9 4 9 6 0 9 6 9 13 -1
6 7 46 17 87 63 259 -27 675 -231 1059 -54 103 -82 150 -183 311 -29 47 -46
79 -37 72 10 -9 17 -10 22 -2 11 18 78 11 130 -14 49 -23 204 -124 320 -209
78 -57 301 -219 456 -331 2308 -1671 3143 -2372 3864 -3246 206 -249 433 -546
778 -1018 65 -89 122 -160 127 -157 5 3 12 0 16 -6 4 -8 3 -9 -4 -5 -18 11
-14 -3 9 -35 11 -16 24 -27 29 -24 5 3 12 0 16 -6 4 -8 3 -9 -4 -5 -18 11 -14
-10 5 -25 14 -12 16 -12 8 0 -5 9 -4 12 3 7 6 -4 9 -13 6 -20 -3 -7 3 -19 13
-27 16 -12 17 -12 8 1 -5 9 0 4 12 -10 13 -14 22 -32 20 -40 -1 -8 3 -15 9
-15 6 0 76 -90 154 -200 302 -422 469 -630 477 -594 8 35 -104 263 -285 579
-761 1327 -1877 2669 -3082 3706 -541 465 -1063 855 -2375 1771 -346 242 -745
522 -885 623 -385 275 -503 340 -635 347 -57 3 -78 0 -112 -17z m1008 -10087
c13 -16 12 -17 -3 -4 -10 7 -18 15 -18 17 0 8 8 3 21 -13z m90 -70 c13 -16 12
-17 -3 -4 -10 7 -18 15 -18 17 0 8 8 3 21 -13z m1229 -1058 c13 -14 21 -25 18
-25 -2 0 -15 11 -28 25 -13 14 -21 25 -18 25 2 0 15 -11 28 -25z m135 -125
c33 -33 57 -60 54 -60 -2 0 -31 27 -64 60 -33 33 -57 60 -54 60 2 0 31 -27 64
-60z"/>
<path d="M2765 6884 c-242 -25 -476 -74 -564 -118 -86 -44 -86 -82 -2 -185 20
-25 30 -41 23 -37 -10 6 -11 1 -6 -21 10 -43 17 -55 143 -242 171 -256 250
-334 375 -367 110 -29 240 -7 401 70 139 65 230 129 325 225 141 141 281 367
266 427 -10 40 83 101 199 130 58 14 22 30 -135 58 -242 44 -393 58 -690 61
-162 1 -313 1 -335 -1z"/>
<path d="M4215 3944 c28 -23 108 -59 371 -167 271 -112 500 -218 696 -323 195
-104 418 -236 413 -245 -3 -4 3 -6 13 -5 9 0 16 -4 15 -11 -2 -7 3 -10 11 -7
8 3 17 0 22 -7 5 -8 3 -10 -6 -4 -8 5 -11 4 -6 -3 4 -6 14 -8 23 -5 12 5 14 3
8 -7 -5 -9 -4 -11 3 -6 20 12 386 -235 1021 -687 374 -267 566 -397 583 -397
54 0 -309 338 -702 654 -666 535 -1243 867 -1898 1090 -209 71 -492 146 -550
146 -36 -1 -36 -1 -17 -16z"/>
</g>
</svg>
